<svg width="65" height="32" viewBox="0 0 65 32" fill="none" xmlns="http://www.w3.org/2000/svg">
<path d="M43.0545 22.0225C41.6643 22.0225 40.5137 21.7267 39.6027 21.1351C38.6917 20.5375 38.0499 19.7093 37.6772 18.6503C37.3104 17.5854 37.2424 16.346 37.4731 14.9321C37.6979 13.5359 38.1652 12.3142 38.8751 11.2671C39.585 10.2199 40.4871 9.40646 41.5815 8.82668C42.6759 8.24099 43.9093 7.94815 45.2817 7.94815C46.666 7.94815 47.8136 8.24691 48.7246 8.84443C49.6356 9.43604 50.2775 10.2643 50.6502 11.3292C51.0229 12.3941 51.0939 13.6335 50.8631 15.0474C50.6324 16.4377 50.1592 17.6564 49.4434 18.7035C48.7276 19.7507 47.8255 20.5671 46.737 21.1528C45.6485 21.7326 44.421 22.0225 43.0545 22.0225ZM43.4272 19.094C44.0661 19.094 44.631 18.9136 45.122 18.5527C45.6189 18.1859 46.0301 17.6889 46.3554 17.0618C46.6867 16.4288 46.9174 15.713 47.0475 14.9143C47.1777 14.1275 47.1866 13.4294 47.0742 12.82C46.9618 12.2048 46.7251 11.7196 46.3643 11.3647C46.0094 11.0097 45.5213 10.8322 44.9002 10.8322C44.2613 10.8322 43.6934 11.0156 43.1965 11.3824C42.6995 11.7433 42.2884 12.2403 41.9631 12.8733C41.6377 13.5063 41.4099 14.2251 41.2798 15.0297C41.1556 15.8106 41.1467 16.5087 41.2532 17.124C41.3597 17.7333 41.5933 18.2155 41.9542 18.5704C42.315 18.9195 42.806 19.094 43.4272 19.094Z" fill="#86D5E3"/>
<path d="M50.3999 21.7562L53.4169 3.58209H57.197L56.079 10.4151H56.1854C56.4102 10.0483 56.7119 9.67564 57.0905 9.29701C57.4751 8.91246 57.9454 8.593 58.5014 8.33861C59.0575 8.0783 59.7171 7.94815 60.4802 7.94815C61.474 7.94815 62.3466 8.20845 63.0979 8.72907C63.8492 9.24376 64.3904 10.0217 64.7217 11.063C65.053 12.0983 65.0885 13.3968 64.8282 14.9587C64.5798 16.4791 64.1213 17.7629 63.4528 18.81C62.7903 19.8513 61.9946 20.6411 61.0659 21.1794C60.143 21.7119 59.164 21.9781 58.1287 21.9781C57.3952 21.9781 56.7918 21.8568 56.3185 21.6143C55.8512 21.3717 55.4874 21.067 55.2271 20.7002C54.9668 20.3275 54.7805 19.9518 54.6681 19.5732H54.4817L54.1268 21.7562H50.3999ZM55.236 14.9409C55.1058 15.7514 55.1029 16.4584 55.2271 17.0618C55.3573 17.6653 55.6057 18.1356 55.9725 18.4728C56.3452 18.8041 56.8332 18.9698 57.4366 18.9698C58.0577 18.9698 58.6079 18.8012 59.0871 18.4639C59.5722 18.1208 59.9744 17.6475 60.2939 17.0441C60.6133 16.4347 60.8381 15.7337 60.9682 14.9409C61.0925 14.1541 61.0954 13.4619 60.9771 12.8644C60.8588 12.2669 60.6163 11.7995 60.2495 11.4623C59.8827 11.1251 59.3858 10.9565 58.7588 10.9565C58.1494 10.9565 57.6022 11.1192 57.1172 11.4445C56.638 11.7699 56.2357 12.2314 55.9104 12.8289C55.5909 13.4264 55.3661 14.1304 55.236 14.9409Z" fill="#86D5E3"/>
<g filter="url(#filter0_d_2_129)">
<path d="M24.3512 25.173L26.962 23.041L27.6772 22.8589C30.7368 22.0361 32.5809 21.2933 33.7864 17.9566C34.7975 15.1581 34.7253 13.355 35.1459 10.2669L35.3638 8.66649C36 5.62335 35 6.12335 38.5 6.12335L39.5201 6.14199L38.2456 15.6669L37.0525 19.9982C35.4438 24.274 32.8566 26.557 28.3884 27.5089L27.2666 27.7479L24.3512 25.173Z" fill="#86D5E3"/>
<path d="M34.9104 2.24023L35.9708 4.67215C36.101 4.97085 36.4097 5.16873 36.7553 5.17501L38.8361 5.2128C39.1817 5.21907 39.4974 5.03253 39.6384 4.73876L40.9797 1.9464C41.2744 1.33697 41.2178 1.23497 40.612 1.22396L35.7242 1.13519C34.7559 1.1176 34.3314 1.10989 34.9104 2.24023Z" fill="#86D5E3"/>
</g>
<path d="M25.3291 22.0224C23.9524 22.0224 22.8131 21.7253 21.9109 21.131C21.0088 20.5308 20.3732 19.6989 20.0042 18.6351C19.641 17.5654 19.5736 16.3204 19.8021 14.9001C20.0247 13.4977 20.4874 12.2705 21.1904 11.2187C21.8934 10.1668 22.7867 9.34969 23.8704 8.76731C24.9542 8.17899 26.1756 7.88483 27.5346 7.88483C28.9054 7.88483 30.0418 8.18493 30.944 8.78514C31.8461 9.37941 32.4817 10.2114 32.8507 11.2811C33.2198 12.3507 33.2901 13.5957 33.0616 15.016C32.8332 16.4126 32.3645 17.6368 31.6557 18.6886C30.9469 19.7405 30.0535 20.5605 28.9757 21.1489C27.8978 21.7312 26.6823 22.0224 25.3291 22.0224ZM25.6981 19.0808C26.3308 19.0808 26.8902 18.8996 27.3764 18.5371C27.8685 18.1686 28.2756 17.6694 28.5978 17.0395C28.9259 16.4036 29.1543 15.6846 29.2832 14.8823C29.4121 14.0919 29.4209 13.3907 29.3096 12.7786C29.1983 12.1606 28.964 11.6733 28.6066 11.3167C28.2551 10.9602 27.7719 10.7819 27.1568 10.7819C26.5241 10.7819 25.9617 10.9661 25.4697 11.3345C24.9776 11.6971 24.5705 12.1962 24.2483 12.8321C23.9261 13.468 23.7005 14.19 23.5717 14.9982C23.4487 15.7826 23.4399 16.4839 23.5453 17.1019C23.6508 17.714 23.8821 18.1983 24.2395 18.5549C24.5968 18.9055 25.083 19.0808 25.6981 19.0808Z" fill="#86D5E3"/>
<g filter="url(#filter1_d_2_129)">
<path d="M12.3242 6.66763C13.5608 7.02468 14.2806 7.49223 14.8113 8.18864C14.9237 8.33602 15.1071 8.41234 15.284 8.3683C17.218 7.88701 18.2336 7.46911 20.1996 6.98562C20.2959 6.96193 20.3425 6.84883 20.2916 6.7615L20.1576 6.53183C19.1538 4.81154 17.9633 3.13333 16.2541 2.16598C16.1815 2.12486 16.1084 2.08479 16.0346 2.04564C14.7648 1.3717 13.3212 1.1163 11.8923 1.1235C10.5034 1.1305 9.36937 1.34179 7.8301 1.9055C5.30729 3.13341 3.72835 4.03767 2.13221 6.41238C0.788033 8.41223 0.242937 9.61699 0.0137536 12.2713C-0.0789955 15.5695 0.246594 17.3224 2.57051 19.8579C4.66839 21.7342 5.9754 22.4038 8.63365 22.6371C11.5129 22.5779 12.8546 22.2631 14.7698 21.2099C17.1327 19.5548 18.235 18.4162 19.6642 15.8768C20.2892 14.3437 20.6503 12.8112 20.6773 11.7524C20.6945 11.0772 20.6525 10.0256 19.9771 10.021H11.0608C10.7824 10.0191 10.5271 10.1801 10.4026 10.4362L8.98345 13.3546C8.78917 13.7542 9.07172 14.2243 9.50615 14.2243H14.3496C14.4488 14.2243 14.5166 14.3225 14.4767 14.416C14.1942 15.0782 13.0387 17.2289 9.94854 17.2289C7.61095 17.0786 7.02655 16.027 6.58825 15.5763C5.71984 14.3742 5.55845 13.2892 5.84127 11.5791C6.03847 10.3866 6.51574 9.23797 7.31492 8.35045C8.12723 7.44834 8.9651 6.9407 10.1941 6.62607C10.8938 6.44694 11.63 6.4672 12.3242 6.66763Z" fill="#86D5E3"/>
</g>
<defs>
<filter id="filter0_d_2_129" x="24.3512" y="1.13123" width="20.8014" height="30.6167" filterUnits="userSpaceOnUse" color-interpolation-filters="sRGB">
<feFlood flood-opacity="0" result="BackgroundImageFix"/>
<feColorMatrix in="SourceAlpha" type="matrix" values="0 0 0 0 0 0 0 0 0 0 0 0 0 0 0 0 0 0 127 0" result="hardAlpha"/>
<feOffset dx="2" dy="2"/>
<feGaussianBlur stdDeviation="1"/>
<feComposite in2="hardAlpha" operator="out"/>
<feColorMatrix type="matrix" values="0 0 0 0 0 0 0 0 0 0 0 0 0 0 0 0 0 0 0.25 0"/>
<feBlend mode="normal" in2="BackgroundImageFix" result="effect1_dropShadow_2_129"/>
<feBlend mode="normal" in="SourceGraphic" in2="effect1_dropShadow_2_129" result="shape"/>
</filter>
<filter id="filter1_d_2_129" x="0" y="1.12335" width="24.6801" height="25.5138" filterUnits="userSpaceOnUse" color-interpolation-filters="sRGB">
<feFlood flood-opacity="0" result="BackgroundImageFix"/>
<feColorMatrix in="SourceAlpha" type="matrix" values="0 0 0 0 0 0 0 0 0 0 0 0 0 0 0 0 0 0 127 0" result="hardAlpha"/>
<feOffset dx="2" dy="2"/>
<feGaussianBlur stdDeviation="1"/>
<feComposite in2="hardAlpha" operator="out"/>
<feColorMatrix type="matrix" values="0 0 0 0 0 0 0 0 0 0 0 0 0 0 0 0 0 0 0.25 0"/>
<feBlend mode="normal" in2="BackgroundImageFix" result="effect1_dropShadow_2_129"/>
<feBlend mode="normal" in="SourceGraphic" in2="effect1_dropShadow_2_129" result="shape"/>
</filter>
</defs>
</svg>
